<?xml version="1.0" encoding="UTF-8"?>
<!DOCTYPE svg PUBLIC "-//W3C//DTD SVG 1.1//EN" "http://www.w3.org/Graphics/SVG/1.1/DTD/svg11.dtd">
<!-- Creator: CorelDRAW 2021 (64-Bit) -->
<svg xmlns="http://www.w3.org/2000/svg" xml:space="preserve" width="8.5in" height="11in" version="1.1" style="shape-rendering:geometricPrecision; text-rendering:geometricPrecision; image-rendering:optimizeQuality; fill-rule:evenodd; clip-rule:evenodd"
viewBox="0 0 8500 11000"
 xmlns:xlink="http://www.w3.org/1999/xlink"
 xmlns:xodm="http://www.corel.com/coreldraw/odm/2003">
 <defs>
  <style type="text/css">
   <![CDATA[
    .fil0 {fill:white;fill-rule:nonzero}
   ]]>
  </style>
 </defs>
 <g id="Layer_x0020_1">
  <metadata id="CorelCorpID_0Corel-Layer"/>
  <g>
   <path class="fil0" d="M6767.37 3392.75c-121.87,28.12 -443.72,43.75 -443.72,43.75l-39.58 127.07c0,0 159.36,-13.54 276.02,-2.08 0,0 37.5,-3.13 41.67,41.67 2.08,45.83 -3.13,93.74 -3.13,93.74 0,0 -3.13,28.12 -41.67,35.41 -44.79,7.29 -346.85,20.83 -346.85,20.83l-48.96 164.57c0,0 -17.71,37.5 22.91,27.08 37.5,-10.42 354.14,-70.83 395.8,-62.5 43.75,10.42 93.74,70.83 79.16,124.99 -16.67,65.62 -333.31,267.69 -524.96,254.15 0,0 -101.04,6.25 -185.4,-130.2 -81.24,-130.2 28.12,-374.97 28.12,-374.97 0,0 -48.95,-114.57 -12.5,-156.24 0,0 20.83,-17.71 83.33,-22.91l78.12 -160.41c0,0 -88.54,5.21 -140.61,-59.37 -47.91,-62.5 -52.08,-89.57 -14.58,-106.24 39.58,-20.83 406.22,-86.45 658.28,-78.12 0,0 88.54,-10.42 166.65,142.7 0,0 35.41,62.5 -27.08,77.08l-1.04 -0.01zm-949.93 616.62c-31.25,76.04 -117.7,156.24 -221.86,107.28 -106.24,-50 -273.94,-391.64 -273.94,-391.64 0,0 -62.5,-127.07 -75,-122.91 0,0 -13.54,-25 -20.83,114.57 -10.42,138.53 2.08,408.3 -55.2,451.01 -52.08,41.67 -114.57,23.96 -149.99,-25 -29.17,-48.95 -41.67,-166.65 -25,-371.85 18.75,-205.19 65.62,-423.93 124.99,-491.63 62.5,-68.74 112.49,-18.75 131.24,0 0,0 80.2,72.91 215.61,288.52l22.91 39.58c0,0 122.91,205.19 135.41,204.15 0,0 10.42,10.42 18.75,2.08 12.5,-3.13 8.33,-69.79 8.33,-69.79 0,0 -22.91,-221.85 -137.49,-596.82 0,0 -16.67,-47.91 -5.21,-93.74 10.42,-41.67 55.2,-20.83 55.2,-20.83 0,0 172.9,83.33 257.27,364.56 83.33,281.23 27.08,536.42 -4.17,612.45l-1.04 0zm-847.85 -721.82c-16.67,29.17 -23.96,69.79 -95.83,81.24 0,0 -697.86,48.95 -732.24,97.91 0,0 -22.91,29.17 14.58,36.46 39.58,8.33 197.9,29.17 272.9,33.33 81.24,0 354.14,2.08 454.13,124.99 0,0 57.29,58.33 55.2,190.61 -2.08,135.41 -26.04,183.32 -79.16,232.28 -55.2,45.83 -528.08,258.31 -833.27,-66.66 0,0 -139.57,-156.24 48.95,-274.98 0,0 135.41,-83.33 482.26,13.54 0,0 104.16,37.5 99.99,76.04 -6.25,41.67 -86.45,83.33 -203.11,81.24 -112.49,-3.13 -195.82,-57.29 -179.15,-47.91 15.62,5.21 -121.87,-66.66 -164.57,-17.71 -41.67,45.83 -31.25,72.91 10.42,101.04 104.16,60.41 513.5,38.54 635.37,-97.91 0,0 48.95,-55.2 -25,-99.99 -72.91,-41.67 -285.39,-67.7 -367.68,-70.83 -78.12,-4.17 -370.8,0 -414.55,-76.04 0,0 -41.67,-54.16 4.17,-202.07 47.91,-156.24 388.51,-216.65 536.42,-229.15 0,0 406.22,-16.67 482.26,66.66 0,0 10.42,18.75 -2.08,46.87l0 1.04zm-1152 915.55c-48.95,36.46 -153.11,20.83 -183.32,-20.83 -29.17,-36.46 -39.58,-180.19 -34.37,-406.22 7.29,-231.23 10.42,-514.54 62.5,-560.37 52.08,-44.79 83.33,-5.21 104.16,25 20.83,31.25 47.91,65.62 52.08,137.49 6.25,72.91 23.96,447.88 23.96,447.88 0,0 22.91,341.64 -23.96,377.06l-1.04 0zm104.16 -1218.65c-143.74,48.95 -241.65,33.33 -324.98,-3.13 -36.46,65.62 -58.33,85.41 -85.41,89.57 -41.67,4.17 -78.12,-62.5 -83.33,-83.33 -8.33,-15.62 -28.12,-43.75 -4.17,-107.28 -81.24,-72.91 -87.49,-170.82 -72.91,-236.44 18.75,-77.08 156.24,-366.64 572.87,-401.01 0,0 204.15,-14.58 239.56,93.74l6.25 0c0,0 197.9,0 193.74,177.07 0,177.07 -218.73,397.89 -441.63,473.92l0 -3.12zm185.4 -504.13c-131.24,20.83 -333.31,195.82 -430.18,340.6 148.95,27.08 409.34,16.67 526,-218.73 0,0 55.2,-147.91 -95.83,-121.87l0 0zm-576 114.57c-41.67,67.7 -43.75,108.33 -23.96,135.41 48.95,-72.91 135.41,-187.48 265.61,-277.06 -99.99,10.42 -184.36,52.08 -241.65,141.66l0 0zm3548.69 1600.92c-95.83,235.4 -177.07,473.92 -223.94,831.19 0,0 -10.42,69.79 -67.7,46.87 -57.29,-20.83 -151.03,-114.57 -171.86,-246.85 -20.83,-172.9 56.24,-464.55 213.52,-799.94 -45.83,-72.91 -78.12,-181.24 -52.08,-333.31 0,0 41.67,-281.23 322.89,-535.37 0,0 33.33,-28.12 52.08,-18.75 22.91,10.42 13.54,99.99 -5.21,145.82 -16.67,43.75 -141.66,260.4 -141.66,260.4 0,0 -78.12,147.91 -56.24,263.52 147.91,-227.07 484.34,-687.45 692.65,-541.63 132.28,93.74 132.28,395.8 33.33,570.79 -78.12,138.53 -298.94,424.97 -593.7,358.31l-2.08 -1.05zm435.38 -707.24c-77.08,83.33 -214.57,241.65 -322.89,456.22 114.57,-12.5 226.02,-76.04 260.4,-108.33 55.2,-48.95 182.28,-181.24 162.49,-356.22 0,0 -12.5,-91.66 -99.99,8.33l0 0zm-4666.31 830.15c-368.72,112.49 -716.61,60.41 -906.18,10.42 -5.21,77.08 -13.54,109.37 -26.04,121.87 -14.58,16.67 -135.41,85.41 -202.07,-12.5 -29.17,-46.87 -43.75,-131.24 -52.08,-208.32 -427.05,-193.74 -624.95,-479.13 -631.2,-489.55 -10.42,-10.42 -107.28,-111.45 -10.42,-236.44 90.62,-112.49 390.59,-226.02 659.32,-270.81 10.42,-229.15 35.41,-406.22 67.7,-484.34 38.54,-93.74 87.49,-10.42 131.24,52.08 35.41,46.87 57.29,247.9 59.37,408.3 174.99,-8.33 281.23,4.17 476,41.67 256.23,43.75 427.05,174.99 413.51,322.89 -12.5,145.82 -145.82,206.23 -197.9,210.4 -52.08,4.17 -135.41,-34.37 -135.41,-34.37 -58.33,-27.08 -5.21,-52.08 62.5,-81.24 75,-36.46 58.33,-72.91 58.33,-72.91 -27.08,-83.33 -359.35,-138.53 -689.53,-138.53 0,182.28 7.29,484.34 12.5,660.37 231.23,43.75 404.13,34.37 404.13,34.37 0,0 843.69,-23.96 867.64,-562.46 26.04,-539.54 -843.69,-1056.17 -1484.26,-1218.66 -639.54,-167.7 -1002.01,-48.96 -1033.26,-33.33 -34.37,16.67 -3.13,22.91 -3.13,22.91 0,0 34.37,5.21 96.87,26.04 62.5,20.83 12.5,52.08 12.5,52.08 -109.37,37.5 -231.23,15.62 -255.19,-34.37 -23.96,-48.95 15.62,-93.74 62.5,-159.36 43.75,-67.7 93.74,-65.62 93.74,-65.62 791.61,-276.02 1758.2,218.73 1758.2,218.73 904.1,456.22 1058.25,992.63 1041.59,1200.95 -14.58,205.19 -93.74,552.04 -650.99,720.78l0 -1.04zm-1739.45 -744.74c-89.57,41.67 -27.08,108.33 -27.08,108.33 168.74,180.19 374.97,293.73 572.87,364.56 22.91,-312.48 20.83,-423.93 20.83,-581.2 -306.23,20.83 -483.3,70.83 -566.62,108.32z"/>
  </g>
 </g>
</svg>
